<svg width="100" height="100" viewBox="0 0 100 100" fill="none" xmlns="http://www.w3.org/2000/svg">
<g clip-path="url(#clip0_101_15)">
<path d="M42.678 24.6635L54.2341 46.1412L47.0849 60.7221M42.678 24.6635L41.9905 54.3004L45.2842 64.4848M42.678 24.6635L45.3466 52.5775L47.0849 60.7221M42.678 24.6635L55.6854 41.0538M45.2842 64.4848L29.5944 97.2692L46.3837 67.8847M45.2842 64.4848L46.3837 67.8847M46.3837 67.8847L50.1127 79.4148L56.3368 50.4651M47.0849 60.7221L48.0072 65.0433L49.6735 62.127L56.3368 50.4651M56.3368 50.4651L59.1905 45.4705L57.79 43.7058M57.79 43.7058L66.5416 3L55.6854 41.0538M57.79 43.7058L55.6854 41.0538" stroke="black" stroke-linejoin="round"/>
<path d="M5 52.3817L32 16L9.37838 52.3817L32 83L5 52.3817Z" fill="black"/>
<path d="M96 46.3602L67 86L91.2973 46.3602L67 13L96 46.3602Z" fill="black"/>
</g>
</svg>
